<svg width="28" height="22" viewBox="0 0 28 22" fill="none" xmlns="http://www.w3.org/2000/svg">
<path d="M2.75 22C1.99375 22 1.34658 21.731 0.8085 21.1929C0.270417 20.6548 0.000916667 20.0072 0 19.25V2.75C0 1.99375 0.2695 1.34658 0.8085 0.8085C1.3475 0.270416 1.99467 0.000916667 2.75 0H24.75C25.5062 0 26.1539 0.2695 26.6929 0.8085C27.2319 1.3475 27.5009 1.99467 27.5 2.75V19.25C27.5 20.0062 27.231 20.6539 26.6929 21.1929C26.1548 21.7319 25.5072 22.0009 24.75 22H2.75ZM13.75 12.375L2.75 5.5V19.25H24.75V5.5L13.75 12.375ZM13.75 9.625L24.75 2.75H2.75L13.75 9.625ZM2.75 5.5V2.75V19.25V5.5Z" fill="white"/>
</svg>
