<svg width="25" height="23" viewBox="0 0 25 23" fill="none" xmlns="http://www.w3.org/2000/svg">
<g clip-path="url(#clip0_698_79)">
<path d="M10.9939 1.57692C11.2587 1.04684 11.059 0.395476 10.5512 0.121452C10.0434 -0.152571 9.40972 0.0540696 9.14497 0.579656L5.10417 8.62516H1.38889C0.62066 8.62516 0 9.26755 0 10.0627C0 10.8578 0.62066 11.5002 1.38889 11.5002L3.64149 20.8215C3.94965 22.1017 5.06076 23.0002 6.33681 23.0002H18.6632C19.9392 23.0002 21.0503 22.1017 21.3585 20.8215L23.6111 11.5002C24.3793 11.5002 25 10.8578 25 10.0627C25 9.26755 24.3793 8.62516 23.6111 8.62516H19.8958L15.855 0.579656C15.5903 0.0540696 14.9609 -0.152571 14.4488 0.121452C13.9366 0.395476 13.7413 1.04684 14.0061 1.57692L17.5477 8.62516H7.45226L10.9939 1.57692ZM8.33333 13.6564V17.9689C8.33333 18.3642 8.02083 18.6877 7.63889 18.6877C7.25694 18.6877 6.94444 18.3642 6.94444 17.9689V13.6564C6.94444 13.2611 7.25694 12.9377 7.63889 12.9377C8.02083 12.9377 8.33333 13.2611 8.33333 13.6564ZM12.5 12.9377C12.8819 12.9377 13.1944 13.2611 13.1944 13.6564V17.9689C13.1944 18.3642 12.8819 18.6877 12.5 18.6877C12.1181 18.6877 11.8056 18.3642 11.8056 17.9689V13.6564C11.8056 13.2611 12.1181 12.9377 12.5 12.9377ZM18.0556 13.6564V17.9689C18.0556 18.3642 17.7431 18.6877 17.3611 18.6877C16.9792 18.6877 16.6667 18.3642 16.6667 17.9689V13.6564C16.6667 13.2611 16.9792 12.9377 17.3611 12.9377C17.7431 12.9377 18.0556 13.2611 18.0556 13.6564Z" fill="white"/>
</g>
<defs>
<clipPath id="clip0_698_79">
<rect width="25" height="23" fill="white"/>
</clipPath>
</defs>
</svg>
